<svg width="533" height="195" viewBox="0 0 533 195" fill="none" xmlns="http://www.w3.org/2000/svg">
<rect y="20" width="73.7234" height="73.7234" rx="5" fill="#F44336"/>
<rect x="80.2766" y="20" width="73.7234" height="73.7234" rx="5" fill="#FFEB3B"/>
<rect y="100.277" width="73.7234" height="73.7234" rx="5" fill="#03A9F4"/>
<rect x="80.2766" y="100.277" width="73.7234" height="73.7234" rx="5" fill="#673AB7"/>
<path d="M242.77 143L222.75 107.64H214.17V143H195.97V52.26H230.03C237.05 52.26 243.03 53.5167 247.97 56.03C252.91 58.4567 256.593 61.7933 259.02 66.04C261.533 70.2 262.79 74.88 262.79 80.08C262.79 86.06 261.057 91.4767 257.59 96.33C254.123 101.097 248.967 104.39 242.12 106.21L263.83 143H242.77ZM214.17 93.99H229.38C234.32 93.99 238.003 92.82 240.43 90.48C242.857 88.0533 244.07 84.7167 244.07 80.47C244.07 76.31 242.857 73.1033 240.43 70.85C238.003 68.51 234.32 67.34 229.38 67.34H214.17V93.99ZM274.571 106.73C274.571 99.45 276.001 92.9933 278.861 87.36C281.808 81.7267 285.751 77.3933 290.691 74.36C295.718 71.3267 301.308 69.81 307.461 69.81C312.835 69.81 317.515 70.8933 321.501 73.06C325.575 75.2267 328.825 77.9567 331.251 81.25V70.98H349.581V143H331.251V132.47C328.911 135.85 325.661 138.667 321.501 140.92C317.428 143.087 312.705 144.17 307.331 144.17C301.265 144.17 295.718 142.61 290.691 139.49C285.751 136.37 281.808 131.993 278.861 126.36C276.001 120.64 274.571 114.097 274.571 106.73ZM331.251 106.99C331.251 102.57 330.385 98.8 328.651 95.68C326.918 92.4733 324.578 90.0467 321.631 88.4C318.685 86.6667 315.521 85.8 312.141 85.8C308.761 85.8 305.641 86.6233 302.781 88.27C299.921 89.9167 297.581 92.3433 295.761 95.55C294.028 98.67 293.161 102.397 293.161 106.73C293.161 111.063 294.028 114.877 295.761 118.17C297.581 121.377 299.921 123.847 302.781 125.58C305.728 127.313 308.848 128.18 312.141 128.18C315.521 128.18 318.685 127.357 321.631 125.71C324.578 123.977 326.918 121.55 328.651 118.43C330.385 115.223 331.251 111.41 331.251 106.99ZM407.267 69.94C415.847 69.94 422.78 72.67 428.067 78.13C433.353 83.5033 435.997 91.0433 435.997 100.75V143H417.797V103.22C417.797 97.5 416.367 93.1233 413.507 90.09C410.647 86.97 406.747 85.41 401.807 85.41C396.78 85.41 392.793 86.97 389.847 90.09C386.987 93.1233 385.557 97.5 385.557 103.22V143H367.357V70.98H385.557V79.95C387.983 76.83 391.06 74.4033 394.787 72.67C398.6 70.85 402.76 69.94 407.267 69.94ZM481.514 69.81C486.887 69.81 491.611 70.8933 495.684 73.06C499.757 75.14 502.964 77.87 505.304 81.25V70.98H523.634V143.52C523.634 150.193 522.291 156.13 519.604 161.33C516.917 166.617 512.887 170.777 507.514 173.81C502.141 176.93 495.641 178.49 488.014 178.49C477.787 178.49 469.381 176.107 462.794 171.34C456.294 166.573 452.611 160.073 451.744 151.84H469.814C470.767 155.133 472.804 157.733 475.924 159.64C479.131 161.633 482.987 162.63 487.494 162.63C492.781 162.63 497.071 161.027 500.364 157.82C503.657 154.7 505.304 149.933 505.304 143.52V132.34C502.964 135.72 499.714 138.537 495.554 140.79C491.481 143.043 486.801 144.17 481.514 144.17C475.447 144.17 469.901 142.61 464.874 139.49C459.847 136.37 455.861 131.993 452.914 126.36C450.054 120.64 448.624 114.097 448.624 106.73C448.624 99.45 450.054 92.9933 452.914 87.36C455.861 81.7267 459.804 77.3933 464.744 74.36C469.771 71.3267 475.361 69.81 481.514 69.81ZM505.304 106.99C505.304 102.57 504.437 98.8 502.704 95.68C500.971 92.4733 498.631 90.0467 495.684 88.4C492.737 86.6667 489.574 85.8 486.194 85.8C482.814 85.8 479.694 86.6233 476.834 88.27C473.974 89.9167 471.634 92.3433 469.814 95.55C468.081 98.67 467.214 102.397 467.214 106.73C467.214 111.063 468.081 114.877 469.814 118.17C471.634 121.377 473.974 123.847 476.834 125.58C479.781 127.313 482.901 128.18 486.194 128.18C489.574 128.18 492.737 127.357 495.684 125.71C498.631 123.977 500.971 121.55 502.704 118.43C504.437 115.223 505.304 111.41 505.304 106.99Z" fill="black" fill-opacity="0.78"/>
</svg>
